<?xml version="1.0" encoding="utf-8"?>
<svg width="24px" height="24px" viewBox="0 0 24 24" version="1.1" xmlns:xlink="http://www.w3.org/1999/xlink" xmlns="http://www.w3.org/2000/svg">
  <defs>
    <path d="M0 0L24 0L24 24L0 24L0 0Z" id="path_1" />
    <clipPath id="mask_1">
      <use xlink:href="#path_1" />
    </clipPath>
  </defs>
  <g id="bx-trash-alt">
    <path d="M0 0L24 0L24 24L0 24L0 0Z" id="Background" fill="#FFFFFF" fill-opacity="0" fill-rule="evenodd" stroke="none" />
    <g clip-path="url(#mask_1)">
      <path d="M15 2L9 2C7.897 2 7 2.897 7 4L7 6L3 6L3 8L5 8L5 20C5 21.103 5.897 22 7 22L17 22C18.103 22 19 21.103 19 20L19 8L21 8L21 6L17 6L17 4C17 2.897 16.103 2 15 2L15 2ZM9 4L15 4L15 6L9 6L9 4L9 4ZM17 20L7 20L7 8L17 8L17 20L17 20Z" id="Shape" fill="#FFB566" fill-rule="evenodd" stroke="none" />
    </g>
  </g>
</svg>